<svg id="レイヤー_1" data-name="レイヤー 1" xmlns="http://www.w3.org/2000/svg" viewBox="0 0 500 464.58"><defs><style>.cls-1,.cls-2,.cls-3,.cls-5{fill:none;}.cls-1,.cls-10,.cls-4,.cls-5,.cls-7,.cls-8,.cls-9{stroke:#231815;}.cls-1,.cls-10,.cls-2,.cls-3,.cls-4,.cls-5,.cls-6,.cls-7,.cls-8,.cls-9{stroke-linecap:round;stroke-linejoin:round;}.cls-1{stroke-width:6px;}.cls-2,.cls-6{stroke:#00bfff;}.cls-2,.cls-3{stroke-width:4px;}.cls-3{stroke:#ffea55;}.cls-4,.cls-6{fill:#ffea55;}.cls-4,.cls-5,.cls-6,.cls-7,.cls-8,.cls-9{stroke-width:4.02px;}.cls-7{fill:#fff;}.cls-12,.cls-8{fill:#fff088;}.cls-10,.cls-9{fill:#fff9cc;}.cls-10{stroke-width:3px;}.cls-11{fill:#231815;}</style></defs><title>illust のコピー</title><path class="cls-1" d="M239.85,147.08l10.74,24.39,10.73-24.39H487.14a8.53,8.53,0,0,0,8.53-8.53V12.48A8.52,8.52,0,0,0,487.14,4H12.86a8.52,8.52,0,0,0-8.53,8.52V138.55a8.53,8.53,0,0,0,8.53,8.53Z"/><line class="cls-2" x1="28.53" y1="289.52" x2="28.53" y2="300.8"/><line class="cls-2" x1="22.9" y1="295.16" x2="34.17" y2="295.16"/><line class="cls-2" x1="476.07" y1="318.27" x2="476.07" y2="329.54"/><line class="cls-2" x1="470.44" y1="323.9" x2="481.71" y2="323.9"/><line class="cls-2" x1="376.39" y1="231.78" x2="376.39" y2="243.05"/><line class="cls-2" x1="370.76" y1="237.41" x2="382.03" y2="237.41"/><line class="cls-2" x1="150.56" y1="316.11" x2="150.56" y2="327.39"/><line class="cls-2" x1="144.92" y1="321.75" x2="156.2" y2="321.75"/><line class="cls-3" x1="58.27" y1="258.48" x2="58.27" y2="269.75"/><line class="cls-3" x1="52.63" y1="264.12" x2="63.9" y2="264.12"/><line class="cls-3" x1="394.51" y1="259.08" x2="394.51" y2="270.35"/><line class="cls-3" x1="388.87" y1="264.72" x2="400.14" y2="264.72"/><line class="cls-3" x1="330.51" y1="338.02" x2="330.51" y2="349.29"/><line class="cls-3" x1="324.87" y1="343.65" x2="336.14" y2="343.65"/><path class="cls-4" d="M303.6,278.21l-1.92,6.9c-3.47,12.53,4.95,25.82,18.83,29.66s27.94-3.19,31.41-15.73l1.92-6.89"/><ellipse class="cls-4" cx="328.72" cy="285.18" rx="23.56" ry="26.07" transform="translate(-33.94 525.72) rotate(-74.5)"/><line class="cls-4" x1="329.93" y1="280.82" x2="325.41" y2="297.1"/><polyline class="cls-4" points="339.58 275.35 329.93 280.82 324.46 271.16"/><line class="cls-4" x1="321.83" y1="280.63" x2="336.95" y2="284.83"/><line class="cls-4" x1="319.94" y1="287.47" x2="335.06" y2="291.66"/><path class="cls-4" d="M214.65,223.1l2.51,6.7c4.56,12.19,19.19,18,32.67,12.92s20.71-19,16.15-31.21l-2.51-6.7"/><ellipse class="cls-4" cx="239.06" cy="213.96" rx="26.07" ry="23.56" transform="translate(-59.87 97.47) rotate(-20.54)"/><line class="cls-4" x1="237.47" y1="209.72" x2="243.4" y2="225.54"/><polyline class="cls-4" points="242.06 199.62 237.47 209.72 227.37 205.12"/><line class="cls-4" x1="230.82" y1="214.33" x2="245.51" y2="208.82"/><line class="cls-4" x1="233.31" y1="220.97" x2="248" y2="215.46"/><path class="cls-4" d="M140,261.07l2.52,6.7c4.56,12.18,19.19,18,32.67,12.91s20.71-19,16.15-31.2l-2.51-6.71"/><ellipse class="cls-4" cx="164.46" cy="251.92" rx="26.07" ry="23.56" transform="matrix(0.94, -0.35, 0.35, 0.94, -77.93, 73.71)"/><line class="cls-4" x1="162.87" y1="247.68" x2="168.8" y2="263.51"/><polyline class="cls-4" points="167.46 237.58 162.87 247.68 152.77 243.09"/><line class="cls-4" x1="156.22" y1="252.29" x2="170.91" y2="246.79"/><line class="cls-4" x1="158.71" y1="258.93" x2="173.4" y2="253.43"/><path class="cls-4" d="M167.87,275.06l-1.37,7c-2.51,12.76,6.92,25.36,21.05,28.13s27.61-5.34,30.11-18.11l1.38-7"/><ellipse class="cls-4" cx="193.45" cy="280.07" rx="23.56" ry="26.07" transform="translate(-118.59 416.06) rotate(-78.91)"/><line class="cls-4" x1="194.32" y1="275.63" x2="191.07" y2="292.21"/><polyline class="cls-4" points="203.53 269.44 194.32 275.63 188.13 266.42"/><line class="cls-4" x1="186.24" y1="276.07" x2="201.64" y2="279.08"/><line class="cls-4" x1="184.88" y1="283.02" x2="200.28" y2="286.04"/><path class="cls-4" d="M126.52,292.55v51.91c0,8.44-10.8,15.29-24.12,15.29s-24.12-6.85-24.12-15.29V292.59"/><path class="cls-4" d="M126.52,304.78c0,7.93-10.8,14.35-24.12,14.35s-24.12-6.42-24.12-14.35"/><path class="cls-4" d="M126.33,291.26c0,7.93-10.71,14.36-23.93,14.36s-23.93-6.43-23.93-14.36"/><path class="cls-5" d="M126.52,318.29c0,7.93-10.8,14.36-24.12,14.36s-24.12-6.43-24.12-14.36"/><path class="cls-5" d="M126.52,331.81c0,7.93-10.8,14.35-24.12,14.35s-24.12-6.42-24.12-14.35"/><path class="cls-4" d="M78.47,291.52c0-7.93,10.71-14.36,23.93-14.36s23.93,6.43,23.93,14.36"/><path class="cls-4" d="M146.31,370.1V422c0,8.44-10.8,15.29-24.12,15.29S98.07,430.45,98.07,422V370.14"/><path class="cls-4" d="M146.31,382.33c0,7.93-10.8,14.36-24.12,14.36s-24.12-6.43-24.12-14.36"/><path class="cls-4" d="M146.12,368.81c0,7.93-10.72,14.36-23.93,14.36s-23.94-6.43-23.94-14.36"/><path class="cls-5" d="M146.31,395.84c0,7.93-10.8,14.36-24.12,14.36s-24.12-6.43-24.12-14.36"/><path class="cls-5" d="M146.31,409.36c0,7.93-10.8,14.36-24.12,14.36s-24.12-6.43-24.12-14.36"/><path class="cls-4" d="M98.25,369.07c0-7.93,10.72-14.36,23.94-14.36s23.93,6.43,23.93,14.36"/><path class="cls-4" d="M89.71,338v51.91c0,8.45-10.8,15.29-24.12,15.29s-24.12-6.84-24.12-15.29V338"/><path class="cls-5" d="M89.71,350.23c0,7.93-10.8,14.36-24.12,14.36s-24.12-6.43-24.12-14.36"/><path class="cls-4" d="M89.53,336.71c0,7.93-10.72,14.36-23.94,14.36s-23.93-6.43-23.93-14.36"/><path class="cls-5" d="M89.71,363.74c0,7.93-10.8,14.36-24.12,14.36s-24.12-6.43-24.12-14.36"/><path class="cls-5" d="M89.71,377.26c0,7.93-10.8,14.36-24.12,14.36s-24.12-6.43-24.12-14.36"/><path class="cls-4" d="M41.66,337c0-7.93,10.72-14.36,23.93-14.36S89.53,329,89.53,337"/><path class="cls-4" d="M448,297.07V349c0,8.45-10.8,15.29-24.12,15.29S399.8,357.43,399.8,349V297.11"/><path class="cls-4" d="M448,309.3c0,7.93-10.8,14.36-24.12,14.36s-24.12-6.43-24.12-14.36"/><path class="cls-4" d="M447.85,295.78c0,7.94-10.71,14.36-23.93,14.36S400,303.72,400,295.78"/><path class="cls-5" d="M448,322.81c0,7.93-10.8,14.36-24.12,14.36s-24.12-6.43-24.12-14.36"/><path class="cls-5" d="M448,336.33c0,7.93-10.8,14.36-24.12,14.36s-24.12-6.43-24.12-14.36"/><path class="cls-4" d="M400,296c0-7.93,10.71-14.36,23.93-14.36s23.93,6.43,23.93,14.36"/><path class="cls-4" d="M425.31,344.59V396.5c0,8.44-10.8,15.29-24.12,15.29s-24.12-6.85-24.12-15.29V344.62"/><path class="cls-5" d="M425.31,356.81c0,7.94-10.8,14.36-24.12,14.36s-24.12-6.42-24.12-14.36"/><path class="cls-4" d="M425.12,343.3c0,7.93-10.71,14.36-23.93,14.36s-23.93-6.43-23.93-14.36"/><path class="cls-5" d="M425.31,370.33c0,7.93-10.8,14.36-24.12,14.36s-24.12-6.43-24.12-14.36"/><path class="cls-5" d="M425.31,383.84c0,7.93-10.8,14.36-24.12,14.36s-24.12-6.43-24.12-14.36"/><path class="cls-4" d="M377.26,343.56c0-7.93,10.71-14.36,23.93-14.36s23.93,6.43,23.93,14.36"/><path class="cls-4" d="M486.12,364.91v51.9c0,8.45-10.8,15.3-24.12,15.3s-24.12-6.85-24.12-15.3V364.94"/><path class="cls-4" d="M486.12,377.13c0,7.93-10.8,14.36-24.12,14.36s-24.12-6.43-24.12-14.36"/><path class="cls-4" d="M485.94,363.62c0,7.93-10.72,14.36-23.94,14.36s-23.93-6.43-23.93-14.36"/><path class="cls-5" d="M486.12,390.65c0,7.93-10.8,14.36-24.12,14.36s-24.12-6.43-24.12-14.36"/><path class="cls-5" d="M486.12,404.16c0,7.93-10.8,14.36-24.12,14.36s-24.12-6.43-24.12-14.36"/><path class="cls-4" d="M438.07,363.87c0-7.93,10.72-14.36,23.93-14.36s23.94,6.43,23.94,14.36"/><path class="cls-4" d="M15.42,416l2.67,6.64c4.84,12.07,19.6,17.52,33,12.16s20.27-19.5,15.43-31.57l-2.67-6.64"/><ellipse class="cls-4" cx="39.62" cy="406.24" rx="26.07" ry="23.56" transform="translate(-148.41 43.96) rotate(-21.86)"/><line class="cls-4" x1="37.93" y1="402.04" x2="44.22" y2="417.72"/><polyline class="cls-4" points="42.29 391.84 37.93 402.04 27.73 397.68"/><line class="cls-4" x1="31.39" y1="406.81" x2="45.95" y2="400.96"/><line class="cls-4" x1="34.03" y1="413.39" x2="48.59" y2="407.54"/><line class="cls-6" x1="267.05" y1="275.67" x2="261.66" y2="290.49"/><line class="cls-6" x1="247.2" y1="274.03" x2="249.94" y2="289.55"/><line class="cls-6" x1="283.91" y1="287.36" x2="271.84" y2="297.51"/><path class="cls-7" d="M326.39,399.12s15-5.71,13.47-18.57c-1-8.57-12.2-3.49-6.21,3.9,2.79,3.45,12.64,6.62,23.33-1.69"/><polyline class="cls-4" points="307.78 433.43 293.8 460.57 278.99 460.57 279.81 448.22"/><polyline class="cls-4" points="252.72 433.84 238.74 460.98 223.94 460.98 224.76 448.63"/><path class="cls-8" d="M325.87,388.84c-3.61-20.51-15.08-47.08-72.1-49.83-26.92-1.29-48,6.63-60,15l-14.31-4.1a2.94,2.94,0,0,0-3.74,3L177,370.13s-3,9.5-4.52,13.16c-16.64,39.88,20.9,57.36,20.9,57.36,8.25,7.64,13.23,20.63,13.23,20.63h18.64l2.19-9.87c5.49.55,23,0,23,0l2.19,9.87h18.92c4.73-6.65,11.24-11.38,17.27-13C325.92,438.15,328.68,404.86,325.87,388.84Z"/><ellipse class="cls-9" cx="185.52" cy="414.36" rx="18.11" ry="15.17"/><line class="cls-10" x1="180.08" y1="410.87" x2="180.08" y2="417.48"/><line class="cls-10" x1="189.71" y1="410.87" x2="189.71" y2="417.48"/><ellipse class="cls-11" cx="213.5" cy="387" rx="2.98" ry="3.29"/><ellipse class="cls-11" cx="185.85" cy="387" rx="2.98" ry="3.29"/><path class="cls-4" d="M222.12,324.68v7.15c0,13,11.68,23.56,26.07,23.56s26.07-10.55,26.07-23.56v-7.15"/><ellipse class="cls-4" cx="248.19" cy="324.68" rx="26.07" ry="23.56"/><line class="cls-4" x1="248.19" y1="320.15" x2="248.19" y2="337.05"/><polyline class="cls-4" points="256.04 312.3 248.19 320.15 240.35 312.3"/><line class="cls-4" x1="240.35" y1="322.13" x2="256.04" y2="322.13"/><line class="cls-4" x1="240.35" y1="329.22" x2="256.04" y2="329.22"/><ellipse class="cls-12" cx="255.77" cy="366.91" rx="18.02" ry="15.39"/><path class="cls-8" d="M244.86,353.68s13.54-3.29,31.87,2.67"/><path class="cls-8" d="M243.05,365.42l1-13a3,3,0,0,0-4.19-2.89l-12.27,5.8"/></svg>